<svg xmlns="http://www.w3.org/2000/svg" width="297" height="395" viewBox="0 0 297 395" version="1.1">
	<path d="M 111.117 7.320 C 108.853 10.796, 107 14.156, 107 14.788 C 107 17.203, 109.825 14.679, 113.529 8.955 C 115.649 5.680, 117.747 3, 118.191 3 C 118.636 3, 119 2.550, 119 2 C 119 1.450, 118.153 1, 117.117 1 C 115.907 1, 113.765 3.256, 111.117 7.320 M 170.639 6.694 C 170.288 7.046, 170 8.158, 170 9.167 C 170 10.175, 169.325 11, 168.500 11 C 166.431 11, 166.623 12.233, 169.012 14.279 C 170.680 15.707, 171.365 15.789, 173.012 14.760 C 175.134 13.435, 175.647 12, 174 12 C 173.450 12, 173 10.902, 173 9.559 C 173 7.050, 171.773 5.560, 170.639 6.694 M 182.038 11.925 C 180.917 14.122, 180 16.065, 180 16.243 C 180 16.420, 182.060 16.655, 184.577 16.764 C 187.823 16.905, 189.036 16.605, 188.749 15.732 C 188.526 15.054, 187.366 14.356, 186.172 14.180 C 183.702 13.817, 183.617 13.585, 185.003 10.995 C 185.642 9.800, 185.656 8.906, 185.041 8.525 C 184.511 8.198, 183.159 9.727, 182.038 11.925 M 113.639 11.694 C 113.288 12.046, 113 13.132, 113 14.108 C 113 15.392, 111.847 16.110, 108.828 16.707 C 106.533 17.161, 104.451 18.147, 104.201 18.897 C 103.835 19.996, 104.844 20.125, 109.373 19.559 C 114.121 18.966, 115 19.102, 115 20.428 C 115 21.293, 114.605 22, 114.122 22 C 112.863 22, 104.599 32.932, 105.316 33.649 C 106.466 34.799, 108.943 33.061, 111.827 29.080 C 114.865 24.886, 116 24.765, 116 28.635 C 116 30.271, 115.566 30.771, 114.500 30.362 C 112.514 29.599, 112.487 33.837, 114.449 38.532 C 115.538 41.140, 116.501 42, 118.327 42 C 121.129 42, 122.456 40.622, 123.381 36.750 C 124.408 32.450, 123.151 28.817, 120.884 29.537 C 119.692 29.915, 118.995 29.651, 118.986 28.817 C 118.979 28.093, 118.701 26.488, 118.370 25.250 C 117.844 23.289, 118.146 23, 120.714 23 C 122.335 23, 125.753 24.059, 128.310 25.354 C 130.867 26.648, 133.193 27.473, 133.480 27.187 C 136.059 24.608, 129.567 20.835, 122.188 20.624 C 116.916 20.473, 116.543 18.688, 121.639 18 C 123.676 17.725, 125.516 16.976, 125.727 16.335 C 126.258 14.721, 122.559 13.718, 118.978 14.505 C 116.693 15.007, 116 14.805, 116 13.638 C 116 11.902, 114.592 10.742, 113.639 11.694 M 168.502 22.357 C 167.367 24.088, 166.299 24.589, 164.479 24.241 C 163.037 23.965, 162 24.234, 162 24.883 C 162 25.498, 162.340 26, 162.755 26 C 163.171 26, 164 27.563, 164.598 29.474 C 165.568 32.574, 165.437 33.181, 163.373 35.119 C 162.102 36.313, 161.299 37.675, 161.590 38.145 C 162.378 39.420, 163.673 39.185, 165.406 37.451 C 166.258 36.599, 167.753 36.037, 168.728 36.201 C 169.975 36.412, 170.447 35.909, 170.320 34.503 C 170.221 33.404, 171.247 31.054, 172.600 29.279 L 175.061 26.053 172.484 25.407 C 170.123 24.814, 170.037 24.616, 171.456 23.049 C 172.921 21.430, 172.640 20, 170.856 20 C 170.411 20, 169.351 21.061, 168.502 22.357 M 184.337 22.565 C 183.947 23.580, 182.640 24.072, 180.618 23.964 C 175.980 23.716, 175.640 23.861, 177 25.500 C 177.685 26.325, 179.090 27, 180.122 27 C 182.252 27, 182.412 27.787, 181.025 31.435 C 180.488 32.846, 179.372 34, 178.544 34 C 176.827 34, 175.294 38.739, 176.623 39.937 C 177.105 40.371, 178.955 41.212, 180.734 41.806 C 183.588 42.758, 184.145 42.631, 185.484 40.720 C 187.380 38.013, 187.397 36.540, 185.553 34.696 C 183.459 32.602, 184.967 27.598, 187.817 27.180 C 190.264 26.822, 190.834 25, 188.500 25 C 187.667 25, 187 24.111, 187 23 C 187 20.628, 185.193 20.333, 184.337 22.565 M 238.548 28.235 C 237.164 30.212, 236.737 30.317, 234.857 29.143 C 233.653 28.391, 232.465 28.209, 232.116 28.724 C 228.957 33.381, 227.110 37.001, 226.557 39.618 C 225.906 42.704, 225.968 42.761, 232.700 45.256 C 238.772 47.507, 239.786 47.630, 242.171 46.404 C 245.132 44.881, 249 39.983, 249 37.756 C 249 36.967, 247.858 35.801, 246.462 35.165 C 244.276 34.168, 244.079 33.720, 245.044 31.919 C 246.419 29.348, 245.745 28.398, 244.020 30.476 C 241.755 33.205, 239.760 32.369, 240.500 29 C 241.284 25.429, 240.680 25.192, 238.548 28.235 M 167.510 29.016 C 167.856 29.575, 168.557 29.774, 169.069 29.457 C 170.456 28.600, 170.198 28, 168.441 28 C 167.584 28, 167.165 28.457, 167.510 29.016 M 232.089 33.833 C 231.318 35.275, 231.470 35.670, 232.804 35.682 C 234.441 35.697, 235.953 34.303, 235.985 32.750 C 236.016 31.231, 233.039 32.058, 232.089 33.833 M 116 34 C 116 35.253, 117.061 35.253, 119 34 C 120.213 33.216, 120.069 33.028, 118.250 33.015 C 117.013 33.007, 116 33.450, 116 34 M 49.598 39.250 C 49.775 42.138, 49.938 44.837, 49.960 45.250 C 50.045 46.842, 51.898 45.898, 52.517 43.947 C 52.952 42.577, 53.555 42.193, 54.334 42.792 C 56.584 44.524, 59 44.968, 59 43.650 C 59 42.942, 57.543 41.673, 55.763 40.830 L 52.526 39.297 55.763 37.623 C 57.543 36.702, 59 35.510, 59 34.974 C 59 33.602, 55.640 33.760, 54.200 35.200 C 53.267 36.133, 52.733 36.133, 51.800 35.200 C 49.693 33.093, 49.268 33.877, 49.598 39.250 M 237.500 35 C 237.101 35.646, 237.224 36.624, 237.774 37.174 C 238.441 37.841, 239.016 37.783, 239.500 37 C 239.899 36.354, 239.776 35.376, 239.226 34.826 C 238.559 34.159, 237.984 34.217, 237.500 35 M 179 36.810 C 179 37.347, 179.713 38.059, 180.584 38.394 C 181.557 38.767, 182.015 38.544, 181.771 37.813 C 181.273 36.318, 179 35.495, 179 36.810 M 117 38 C 117 38.550, 117.450 39, 118 39 C 118.550 39, 119 38.550, 119 38 C 119 37.450, 118.550 37, 118 37 C 117.450 37, 117 37.450, 117 38 M 229.225 39.011 C 228.341 40.427, 228.407 40.942, 229.532 41.374 C 230.337 41.683, 231.408 41.105, 231.966 40.063 C 233.326 37.522, 230.768 36.540, 229.225 39.011 M 241.446 38.087 C 240.416 39.755, 242.733 41.667, 244.113 40.287 C 245.267 39.133, 244.545 37, 243 37 C 242.515 37, 241.816 37.489, 241.446 38.087 M 234.459 41.067 C 234.096 41.653, 234.040 42.373, 234.333 42.667 C 235.050 43.383, 237 42.121, 237 40.941 C 237 39.663, 235.274 39.748, 234.459 41.067 M 42.824 42.924 C 41.081 44.295, 39.985 44.585, 39.265 43.865 C 37.692 42.292, 37.143 44.058, 37.858 48.396 C 38.622 53.031, 40.276 53.664, 40.990 49.594 C 41.450 46.974, 41.635 46.851, 42.872 48.344 C 44.359 50.137, 47 50.589, 47 49.050 C 47 48.527, 46.212 47.653, 45.250 47.107 C 43.611 46.178, 43.627 46.021, 45.500 44.625 C 46.936 43.555, 47.196 42.825, 46.421 42.039 C 45.641 41.246, 44.645 41.491, 42.824 42.924 M 238.500 43 C 238.160 43.550, 238.332 44, 238.882 44 C 239.432 44, 240.160 43.550, 240.500 43 C 240.840 42.450, 240.668 42, 240.118 42 C 239.568 42, 238.840 42.450, 238.500 43 M 60.616 48.003 C 56.454 52.610, 56.021 54.378, 59.250 53.577 C 60.487 53.270, 60.938 53.277, 60.250 53.593 C 58.589 54.355, 58.650 56, 60.339 56 C 61.076 56, 62.203 57.150, 62.844 58.556 C 64.244 61.630, 66.379 60.763, 65.733 57.383 C 65.482 56.072, 65.702 55, 66.222 55 C 66.742 55, 67.005 54.516, 66.808 53.925 C 66.611 53.334, 66.193 52.996, 65.879 53.175 C 65.564 53.354, 64.558 52.878, 63.641 52.117 C 62.373 51.065, 62.244 50.410, 63.103 49.376 C 64.013 48.280, 64.788 48.787, 67.121 52.009 C 70.331 56.439, 71.880 56.895, 74.369 54.145 C 76.714 51.553, 75.468 48.808, 72.122 49.196 C 70.163 49.423, 69.061 48.805, 67.765 46.750 C 66.810 45.237, 65.625 44, 65.131 44 C 64.637 44, 62.605 45.801, 60.616 48.003 M 224.500 45.895 C 217.687 48.266, 212.744 51.144, 213.754 52.154 C 214.533 52.933, 216.439 52.371, 220.519 50.161 L 226.200 47.084 231.350 49.042 C 237.173 51.255, 238 51.383, 238 50.072 C 238 49.334, 227.524 44.719, 226.712 45.100 C 226.596 45.155, 225.600 45.512, 224.500 45.895 M 225 49.352 C 225 51.133, 234.037 55.363, 235.251 54.149 C 236.288 53.112, 235.123 52.307, 228.750 49.660 C 225.915 48.482, 225 48.407, 225 49.352 M 50.691 53.267 C 46.669 56.845, 45.763 59.527, 48.915 58.527 C 50.222 58.112, 51.327 58.629, 52.395 60.153 C 53.820 62.188, 53.813 62.549, 52.319 64.200 C 50.038 66.721, 51.302 67.503, 54.390 65.480 C 57.017 63.759, 60.444 58.111, 59.459 57.126 C 59.156 56.823, 58.036 57.121, 56.968 57.788 C 54.481 59.341, 54.338 59.322, 53.583 57.355 C 53.227 56.427, 53.692 54.892, 54.652 53.832 C 55.769 52.598, 56.014 51.614, 55.368 50.968 C 54.721 50.321, 53.115 51.111, 50.691 53.267 M 128.880 53.453 C 128.641 53.693, 124.477 54.382, 119.627 54.984 C 110.324 56.140, 95.536 61.187, 83.100 67.450 C 63.101 77.521, 40.593 100.139, 30.183 120.625 C 24.797 131.225, 19.729 148.954, 18.214 162.500 C 17.722 166.900, 17.435 195.250, 17.578 225.500 C 17.844 282.120, 18.700 296.736, 22.320 306.500 C 32.448 333.819, 36.841 340.769, 56.500 360.575 C 77.120 381.349, 102.618 391.957, 136.896 394.023 C 147.022 394.634, 154.724 394.602, 159.396 393.932 C 163.303 393.371, 169.650 392.501, 173.500 391.999 C 189.051 389.972, 215.432 377.001, 231.316 363.572 C 238.002 357.919, 255.615 335.134, 258.645 328.218 C 260.023 325.073, 262.227 320.197, 263.541 317.382 C 271.915 299.457, 273.108 285.521, 272.566 212 C 272.230 166.443, 272.035 161.720, 270.115 152.712 C 268.968 147.329, 267.573 142.071, 267.015 141.028 C 266.457 139.985, 266 138.044, 266 136.715 C 266 135.385, 264.946 132.316, 263.658 129.894 C 262.371 127.472, 260.752 123.778, 260.061 121.684 C 258.151 115.897, 246.078 98.758, 237.842 90.141 C 231.104 83.091, 226.108 79.243, 210.042 68.729 C 204.036 64.799, 180.482 56.052, 175.815 56.019 C 174.338 56.009, 171.863 55.486, 170.315 54.858 C 167.644 53.774, 129.841 52.492, 128.880 53.453 M 218.998 56.502 C 215.361 60.254, 215.597 61.388, 220.250 62.538 C 223.367 63.307, 224.034 61.686, 221.250 60.106 C 219.591 59.165, 219.590 59.022, 221.230 57.362 C 222.847 55.726, 223.185 55.718, 226.378 57.241 C 229.689 58.820, 231.514 58.640, 230.404 56.845 C 229.989 56.174, 223.527 53, 222.574 53 C 222.474 53, 220.865 54.576, 218.998 56.502 M 225.287 60.503 C 223.583 63.748, 230.357 72.976, 232.714 70.620 C 233.059 70.274, 232.317 68.902, 231.066 67.570 C 228.744 65.099, 228.970 63, 231.559 63 C 232.352 63, 233 62.550, 233 62 C 233 61.450, 231.688 61, 230.083 61 C 228.479 61, 226.980 60.439, 226.751 59.753 C 226.484 58.951, 225.961 59.218, 225.287 60.503 M 131.565 61.768 C 131.418 61.916, 127.293 62.520, 122.399 63.111 C 101.315 65.657, 75.759 78.871, 58.994 95.894 C 43.247 111.884, 35.197 125.964, 29.247 147.926 L 26.654 157.500 26.303 216.500 C 25.961 273.893, 26.296 283.480, 29.189 299 C 29.753 302.025, 31.012 306.300, 31.988 308.500 C 32.964 310.700, 34.092 313.625, 34.496 315 C 35.975 320.032, 43.088 332.657, 47.731 338.492 C 50.354 341.787, 57 349.004, 62.500 354.529 C 79.322 371.427, 96.121 379.595, 124.225 384.541 C 134.962 386.431, 156.447 386.400, 165.500 384.483 C 169.349 383.667, 173.759 383, 175.298 383 C 176.838 383, 183.813 380.736, 190.799 377.969 C 203.061 373.113, 214.842 366.222, 224.850 358.051 C 231.463 352.654, 247.867 331.433, 251.174 324 C 252.765 320.425, 254.667 316.375, 255.401 315 C 257.899 310.322, 261.962 296.523, 263.057 289 C 263.756 284.194, 264.111 260.722, 264.047 223.645 C 263.954 170.489, 263.787 165.007, 261.996 156.145 C 259.470 143.652, 256.754 134.486, 254.114 129.539 C 252.951 127.360, 252 125.028, 252 124.357 C 252 122.334, 237.968 102.079, 232.418 96.090 C 229.569 93.016, 221.161 86.392, 213.735 81.372 C 201.883 73.359, 198.721 71.739, 187.865 68.122 C 181.063 65.855, 174.327 64, 172.898 64 C 171.468 64, 168.994 63.574, 167.399 63.053 C 164.869 62.227, 132.275 61.058, 131.565 61.768 M 24.557 70.937 C 22.885 72.785, 22.643 72.797, 19.307 71.207 C 16.030 69.644, 15.732 69.646, 14.563 71.245 C 13.462 72.751, 13.091 72.782, 11.408 71.507 C 7.821 68.793, 6.355 69.927, 9.615 72.895 C 12.111 75.167, 12.530 76.088, 11.725 77.527 C 10.912 78.980, 11.347 79.835, 14.011 82.009 C 16.163 83.765, 16.904 84.941, 16.151 85.407 C 15.518 85.798, 15 86.541, 15 87.059 C 15 88.529, 17.620 88.163, 19 86.500 C 19.685 85.675, 20.571 85, 20.971 85 C 21.762 85, 25.500 92.803, 25.500 94.454 C 25.500 96.066, 28.689 96.252, 29.295 94.674 C 29.595 93.891, 28.782 90.965, 27.488 88.171 C 24.842 82.461, 24.611 82.752, 32.820 81.473 C 36.762 80.859, 39.142 78.808, 37.646 77.313 C 36.945 76.612, 26.089 79.811, 24.250 81.260 C 23.563 81.802, 23 82.049, 23 81.810 C 23 80.727, 27.087 73.064, 27.949 72.532 C 28.993 71.887, 28.256 69, 27.048 69 C 26.642 69, 25.521 69.872, 24.557 70.937 M 268 74.300 C 268 75.015, 268.521 76.121, 269.158 76.758 C 270.034 77.634, 270.005 78.289, 269.035 79.458 C 267.307 81.540, 265.670 81.398, 263.479 78.976 C 262.361 77.742, 261.288 77.312, 260.725 77.875 C 259.321 79.279, 268.977 90, 271.646 90 C 273.680 90, 273.286 88.618, 270.511 86.011 C 268.093 83.738, 268.077 83.635, 269.944 82.327 C 271.459 81.266, 272.408 81.229, 274.437 82.153 C 277.530 83.562, 278.802 82.671, 276.925 80.410 C 275.749 78.993, 275.885 78.511, 277.924 76.860 C 281.183 74.222, 279.574 73.134, 275.700 75.357 C 272.588 77.143, 272.504 77.138, 271.143 75.089 C 269.582 72.738, 268 72.341, 268 74.300 M 17 74.755 C 17 75.305, 17.675 76.315, 18.500 77 C 19.337 77.694, 20 77.803, 20 77.245 C 20 76.695, 19.325 75.685, 18.500 75 C 17.663 74.306, 17 74.197, 17 74.755 M 14 78.640 C 14 79.477, 17.242 81.927, 18.405 81.968 C 18.903 81.986, 18.495 81.100, 17.500 80 C 15.727 78.041, 14 77.370, 14 78.640 M 129.500 78.952 C 125.100 79.392, 118.618 80.513, 115.096 81.443 C 108.271 83.246, 94.052 90.009, 85 95.759 C 79.493 99.256, 63 115.078, 63 116.862 C 63 117.384, 61.353 119.766, 59.341 122.155 C 54.870 127.463, 49.995 137.739, 46.322 149.600 L 43.565 158.500 43.541 222 L 43.517 285.500 46.272 295.952 C 47.787 301.700, 50.681 309.800, 52.703 313.952 C 57.384 323.561, 67.608 337.516, 73.747 342.678 C 87.655 354.371, 108.844 365.074, 122 367.052 C 130.697 368.360, 160.849 368.549, 168 367.341 C 183.901 364.654, 209.382 351.156, 218.361 340.662 C 220.637 338.002, 224.391 333.703, 226.703 331.109 C 232.532 324.568, 241.702 305.613, 244.645 294.021 C 247.046 284.561, 247.051 284.428, 247.122 226.021 C 247.199 162.728, 246.988 159.461, 241.864 144.675 C 236.382 128.854, 228.165 116.396, 215.773 105.120 C 195.466 86.641, 177.737 79.740, 147.500 78.546 C 142 78.329, 133.900 78.511, 129.500 78.952 M 287.408 84.500 C 285.892 86.814, 285.892 87.185, 287.405 89.495 C 288.930 91.823, 289.251 91.903, 292.201 90.699 C 296.234 89.054, 296.549 87.968, 293.954 84.669 C 291.334 81.338, 289.511 81.291, 287.408 84.500 M 6.032 88.955 C 4.745 90.763, 3.360 91.692, 2.464 91.348 C -0.955 90.036, 1.947 94.586, 6.020 96.923 C 7.384 97.706, 9.874 99.160, 11.553 100.155 C 14.328 101.800, 14.805 101.825, 16.803 100.426 C 18.011 99.579, 19 97.917, 19 96.731 C 19 94.438, 11.420 86, 9.360 86 C 8.687 86, 7.189 87.330, 6.032 88.955 M 280.467 87.750 C 281.780 91.124, 281.457 91.471, 276 92.555 C 271.733 93.404, 270.566 94.024, 270.794 95.324 C 270.955 96.246, 270.618 97, 270.044 97 C 269.470 97, 269 97.513, 269 98.139 C 269 98.923, 270.640 99.092, 274.250 98.682 C 279.002 98.142, 279.316 98.223, 277.559 99.543 C 276.491 100.344, 273.705 101, 271.368 101 C 266.971 101, 265.011 102.273, 267.229 103.689 C 267.928 104.135, 268.500 105.625, 268.500 107 C 268.500 109.293, 268.856 109.493, 272.797 109.410 C 280.885 109.241, 284.922 103.617, 281.585 97.164 C 279.267 92.682, 281.977 92.345, 285.440 96.685 C 287.279 98.990, 288.561 99.839, 289.216 99.184 C 289.870 98.530, 288.800 96.123, 286.066 92.097 C 282.165 86.353, 278.953 83.858, 280.467 87.750 M 128 87.988 C 117.375 88.960, 113.068 90.370, 99.726 97.244 C 76.607 109.154, 60.295 129.346, 54.058 153.773 C 52.103 161.430, 51.939 164.840, 51.851 199.638 C 51.783 226.450, 52.077 237.430, 52.878 237.925 C 53.495 238.306, 58.058 239.442, 63.016 240.449 C 76.899 243.267, 101.816 255.987, 111.735 265.320 C 113.514 266.994, 115.145 268.169, 115.359 267.932 C 115.573 267.694, 115.961 264.034, 116.221 259.798 C 116.752 251.144, 117.039 251.513, 108.500 249.873 C 97.371 247.736, 95.316 247.195, 91 245.267 C 88.525 244.162, 84.548 241.512, 82.163 239.379 C 78.753 236.329, 77.643 234.514, 76.969 230.889 C 76.060 225.995, 77.208 214.684, 78.818 212.682 C 79.341 212.032, 80.080 209.925, 80.459 208 C 81.356 203.453, 85.047 193.937, 86.691 191.934 C 87.398 191.073, 88.270 188.823, 88.629 186.934 C 88.988 185.045, 89.609 183.050, 90.008 182.500 C 90.408 181.950, 91.538 179.042, 92.518 176.039 C 93.499 173.035, 95.507 168.532, 96.981 166.032 C 98.455 163.532, 99.948 160.365, 100.299 158.994 C 101.521 154.222, 108.477 145.163, 113.618 141.647 C 120.380 137.024, 124.704 135.984, 138.256 135.720 C 147.214 135.546, 150.093 135.834, 152.040 137.098 C 153.393 137.977, 156.151 139.238, 158.168 139.899 C 160.186 140.560, 164.461 143.629, 167.668 146.719 C 170.876 149.809, 178.450 155.682, 184.500 159.770 C 194.738 166.687, 203.771 175.152, 205.289 179.250 C 205.646 180.213, 206.347 181, 206.847 181 C 207.348 181, 208.295 182.463, 208.952 184.250 C 209.610 186.037, 210.902 189.038, 211.824 190.918 C 214.561 196.500, 213.852 211.528, 210.545 218 C 208.317 222.361, 198.796 231.566, 192.598 235.351 C 188.703 237.730, 188.044 238.559, 188.619 240.351 C 188.998 241.533, 189.376 245.299, 189.459 248.721 C 189.541 252.143, 189.854 255.187, 190.154 255.487 C 190.453 255.787, 194.370 254.002, 198.856 251.520 C 207.648 246.657, 225.984 240.263, 233.790 239.338 L 238.609 238.768 238.780 204.634 C 238.880 184.525, 238.512 167.624, 237.883 163.500 C 234.747 142.950, 225.020 124.901, 209.557 110.939 C 187.323 90.866, 165.051 84.598, 128 87.988 M 7.086 91.839 C 6.260 93.383, 6.388 93.935, 7.688 94.434 C 9.359 95.075, 11.216 93.287, 10.671 91.563 C 10.098 89.748, 8.124 89.900, 7.086 91.839 M 12.503 94.995 C 11.786 96.155, 13.647 99, 15.122 99 C 16.504 99, 16.147 96.367, 14.589 95.074 C 13.581 94.237, 12.985 94.215, 12.503 94.995 M 274.500 103.055 C 270.988 104.311, 269.986 105.033, 271.133 105.484 C 273.071 106.244, 280 103.561, 280 102.051 C 280 101.473, 279.887 101.060, 279.750 101.134 C 279.613 101.207, 277.250 102.072, 274.500 103.055 M 177 109 C 177 109.550, 177.651 110, 178.446 110 C 179.647 110, 179.558 110.972, 177.923 115.723 C 175.575 122.549, 174 124.559, 174 120.731 C 174 118.770, 173.602 118.215, 172.500 118.638 C 170.379 119.452, 170.579 124.704, 172.776 125.880 C 176.271 127.751, 179.386 123.394, 181.450 113.750 C 181.773 112.237, 182.705 111, 183.519 111 C 184.334 111, 185 110.325, 185 109.500 C 185 108.417, 183.889 108, 181 108 C 178.800 108, 177 108.450, 177 109 M 113.500 111 C 112.684 112.320, 113.880 114.192, 115.069 113.457 C 116.284 112.707, 116.276 110, 115.059 110 C 114.541 110, 113.840 110.450, 113.500 111 M 98.988 114.028 C 97.790 116.922, 97.631 116.988, 95.402 115.528 C 91.223 112.790, 90.414 113.936, 94.075 117.407 C 96.042 119.271, 98.441 122.867, 99.408 125.398 C 100.375 127.929, 101.803 130, 102.583 130 C 104.331 130, 104.380 130.513, 102.004 124.011 C 100.906 121.008, 100.195 117.864, 100.425 117.025 C 100.654 116.186, 101.132 114.487, 101.488 113.250 C 102.450 109.902, 100.438 110.528, 98.988 114.028 M 126 117.218 C 126 123.352, 128.443 123.882, 129.392 117.953 C 130.120 113.398, 132 113.497, 132 118.090 C 132 119.867, 132.631 121.305, 133.567 121.664 C 135.458 122.390, 137.977 120.265, 136.479 119.208 C 135.926 118.819, 135.018 117.150, 134.460 115.500 C 133.580 112.895, 132.957 112.496, 129.723 112.468 L 126 112.436 126 117.218 M 142.200 113.200 C 140.575 114.825, 140.688 117.496, 142.444 118.953 C 143.594 119.908, 143.656 120.660, 142.751 122.648 C 141.842 124.643, 141.903 125.326, 143.057 126.056 C 145.604 127.668, 147.079 127.073, 148.150 124 C 148.725 122.350, 149.827 121, 150.598 121 C 151.369 121, 152 120.550, 152 120 C 152 119.450, 151.273 119, 150.383 119 C 149.254 119, 148.926 118.391, 149.294 116.982 C 150.279 113.216, 144.999 110.401, 142.200 113.200 M 144.583 114.866 C 144.152 115.563, 144.070 116.403, 144.400 116.733 C 145.295 117.628, 146.271 116.312, 145.787 114.862 C 145.449 113.846, 145.213 113.846, 144.583 114.866 M 114.657 119.250 C 115.314 122.762, 116.597 124.736, 117.583 123.750 C 118.421 122.912, 116.071 116, 114.947 116 C 114.454 116, 114.323 117.463, 114.657 119.250 M 187.053 121.750 C 185.498 127.347, 185.674 127.815, 189.750 128.947 C 194.794 130.348, 194.711 130.377, 194.724 127.250 C 194.731 125.737, 195.073 123.487, 195.484 122.250 C 196.521 119.136, 194.275 119.302, 192.843 122.445 C 192.230 123.790, 191.056 125.148, 190.234 125.464 C 188.999 125.937, 188.851 125.336, 189.381 122.019 C 190.200 116.897, 188.456 116.695, 187.053 121.750 M 172.500 246.657 C 170.300 247.471, 167.150 248.484, 165.500 248.909 C 163.850 249.335, 161.060 250.429, 159.300 251.341 C 157.539 252.254, 154.705 253, 153 253 C 151.295 253, 148.686 253.619, 147.200 254.376 C 145.715 255.132, 141.062 256.066, 136.860 256.451 C 128.016 257.260, 128.561 256.381, 127.433 271.662 L 126.780 280.500 132.253 289.184 C 135.263 293.960, 139.237 301.948, 141.085 306.934 C 144.136 315.166, 146 318.116, 146 314.711 C 146 314.003, 146.928 311.640, 148.061 309.461 C 149.195 307.283, 150.914 303.462, 151.881 300.971 C 154.807 293.438, 165.031 278.905, 172.371 271.848 C 178.931 265.541, 179.252 265.024, 178.559 261.848 C 178.157 260.007, 177.754 255.725, 177.664 252.333 C 177.574 248.941, 177.275 245.943, 177 245.672 C 176.725 245.401, 174.700 245.844, 172.500 246.657 M 51.759 253.750 C 52.049 257.462, 52.758 260.805, 53.334 261.177 C 53.910 261.549, 56.941 262.304, 60.069 262.855 C 68.028 264.257, 85.612 272.931, 93.059 279.129 C 103.831 288.093, 112.800 299.063, 116.663 308 C 117.970 311.025, 119.759 314.784, 120.638 316.354 C 123.539 321.535, 125.140 329.314, 126.327 344 L 127.500 358.500 134.885 358.797 L 142.270 359.093 141.653 354.297 C 141.314 351.658, 140.759 345, 140.419 339.500 C 139.745 328.593, 135.174 313.231, 128.913 300.827 C 117.509 278.236, 93.822 258.539, 68.449 250.548 C 62.254 248.596, 55.845 247, 54.208 247 L 51.230 247 51.759 253.750 M 225.958 249.347 C 209.560 253.131, 190.332 264.545, 177.578 278.065 C 159.206 297.540, 147.500 328.363, 149.614 351.695 L 150.276 359 156.579 359 C 160.046 359, 163.111 358.630, 163.390 358.178 C 163.669 357.726, 163.958 352.438, 164.031 346.428 C 164.375 318.099, 178.544 292.208, 202.723 275.726 C 212.929 268.769, 218.673 266.168, 230 263.376 C 233.575 262.495, 236.787 261.488, 237.138 261.137 C 237.489 260.787, 238.087 257.462, 238.468 253.750 C 239.283 245.791, 240.107 246.081, 225.958 249.347 M 52 274.935 C 52 282.833, 52.994 284.322, 59.643 286.380 C 62.864 287.376, 67.975 289.808, 71 291.784 C 74.025 293.760, 78.218 296.499, 80.317 297.870 C 86.532 301.932, 97.616 318.059, 100.528 327.279 C 101.888 331.582, 103 336.817, 103 338.912 C 103 341.007, 103.272 344.705, 103.604 347.131 L 104.209 351.541 111.503 354.146 L 118.798 356.751 118.295 346.625 C 117.916 338.998, 116.969 333.855, 114.458 325.781 C 107.320 302.832, 94.149 287.334, 72.935 276.925 C 67.842 274.426, 55.033 270, 52.895 270 C 52.403 270, 52 272.221, 52 274.935 M 228.500 271.916 C 225.750 272.934, 221.025 274.834, 218 276.140 C 201.441 283.286, 183.013 302.792, 178.073 318.403 C 177.012 321.756, 175.419 326.470, 174.533 328.878 C 173.115 332.730, 170.621 355.930, 171.525 356.852 C 172.059 357.396, 182.225 353.946, 184.750 352.364 C 186.757 351.106, 187 350.146, 187 343.481 C 187 328.347, 195.759 310.730, 209 299.233 C 215.281 293.778, 225.994 287.532, 231.697 285.997 C 234.338 285.287, 236.781 284.434, 237.124 284.103 C 237.468 283.771, 238.043 280.462, 238.402 276.750 L 239.056 270 236.278 270.033 C 234.750 270.051, 231.250 270.898, 228.500 271.916 M 55.556 296.670 C 57.361 304.722, 67.564 322.549, 74.959 330.572 C 79.468 335.464, 93.045 346, 94.839 346 C 96.431 346, 96.325 344.843, 93.833 335.032 C 89.953 319.758, 81.107 306.991, 70.201 300.927 C 62.137 296.443, 59.817 295.299, 57.211 294.522 C 55.119 293.899, 54.976 294.084, 55.556 296.670 M 228.753 296.472 C 221.154 299.629, 217.819 302.068, 209.768 310.356 C 205.231 315.027, 202.404 318.952, 201.097 322.394 C 200.031 325.202, 198.485 328.850, 197.661 330.500 C 196.837 332.150, 195.843 336.601, 195.450 340.390 C 194.857 346.120, 194.970 347.137, 196.118 346.429 C 210.729 337.426, 221.428 325.381, 230.696 307.500 C 233.907 301.304, 236.346 293.968, 235.169 294.042 C 234.801 294.066, 231.914 295.159, 228.753 296.472" stroke="none" fill="black" fill-rule="evenodd"/>
</svg>